<mxfile host="app.diagrams.net" modified="2024-05-14T06:18:17.205Z" agent="Mozilla/5.0 (X11; Linux x86_64; rv:109.0) Gecko/20100101 Firefox/115.0" version="24.3.1" etag="SUsH6_jTyYG738gVTXwj" type="github">
  <diagram name="Page-1" id="O8xiczSv6fGkHhYAu4ld">
    <mxGraphModel>
      <root>
        <mxCell id="0" />
        <mxCell id="1" parent="0" />
      </root>
    </mxGraphModel>
  </diagram>
</mxfile>
